HIERARCHY
ROOT Hips
{
  OFFSET 45.7338 96.8124 -11.3916
  CHANNELS 6 Xposition Yposition Zposition Zrotation Xrotation Yrotation
  JOINT spine
  {
    OFFSET 0 7.96568 0.458067
    CHANNELS 3 Zrotation Xrotation Yrotation
    JOINT spine1
    {
      OFFSET 0 10.2431 0
      CHANNELS 3 Zrotation Xrotation Yrotation
      JOINT spine2
      {
        OFFSET 0 9.81475 0
        CHANNELS 3 Zrotation Xrotation Yrotation
        JOINT Neck
        {
          OFFSET 0 25.1986 1.20138
          CHANNELS 3 Zrotation Xrotation Yrotation
          JOINT Head
          {
            OFFSET 0 7.61315 0
            CHANNELS 3 Zrotation Xrotation Yrotation
            End Site
            {
              OFFSET 0 18.4281 -6.07733
            }
          }
        }
        JOINT RightShoulder
        {
          OFFSET -4.1327 10.5992 -0.575451
          CHANNELS 3 Zrotation Xrotation Yrotation
          JOINT RightArm
          {
            OFFSET 0 13.9018 0
            CHANNELS 3 Zrotation Xrotation Yrotation
            JOINT RightArmRoll
            {
              OFFSET 0 7.01789 0
              CHANNELS 3 Zrotation Xrotation Yrotation
              JOINT RightForeArm
              {
                OFFSET 0 20.4406 0
                CHANNELS 3 Zrotation Xrotation Yrotation
                JOINT RightForeArmRoll
                {
                  OFFSET 0 7.87515 0
                  CHANNELS 3 Zrotation Xrotation Yrotation
                  JOINT RightHand
                  {
                    OFFSET 0 15.8037 0
                    CHANNELS 3 Zrotation Xrotation Yrotation
                    End Site
                    {
                      OFFSET 0 0 0
                    }
                  }
                }
              }
            }
          }
        }
        JOINT LeftShoulder
        {
          OFFSET 4.1327 10.5992 -0.575451
          CHANNELS 3 Zrotation Xrotation Yrotation
          JOINT LeftArm
          {
            OFFSET 0 13.9018 0
            CHANNELS 3 Zrotation Xrotation Yrotation
            JOINT LeftArmRoll
            {
              OFFSET 0 7.01789 0
              CHANNELS 3 Zrotation Xrotation Yrotation
              JOINT LeftForeArm
              {
                OFFSET 0 20.4406 0
                CHANNELS 3 Zrotation Xrotation Yrotation
                JOINT LeftForeArmRoll
                {
                  OFFSET 0 7.87516 0
                  CHANNELS 3 Zrotation Xrotation Yrotation
                  JOINT LeftHand
                  {
                    OFFSET 0 15.8037 0
                    CHANNELS 3 Zrotation Xrotation Yrotation
                    End Site
                    {
                      OFFSET 0 0 0
                    }
                  }
                }
              }
            }
          }
        }
      }
    }
  }
  JOINT RightUpLeg
  {
    OFFSET -7.06048 -1.2947 -1.0861
    CHANNELS 3 Zrotation Xrotation Yrotation
    JOINT RightUpLegRoll
    {
      OFFSET 0 18.5308 0
      CHANNELS 3 Zrotation Xrotation Yrotation
      JOINT RightLeg
      {
        OFFSET 0 -22.9476 0
        CHANNELS 3 Zrotation Xrotation Yrotation
        JOINT RightLegRoll
        {
          OFFSET 0 23.0226 0
          CHANNELS 3 Zrotation Xrotation Yrotation
          JOINT RightFoot
          {
            OFFSET 0 19.1625 0
            CHANNELS 3 Zrotation Xrotation Yrotation
            JOINT RightToeBase
            {
              OFFSET 0 16.0188 0
              CHANNELS 3 Zrotation Xrotation Yrotation
              End Site
              {
                OFFSET 0.00678979 7.75781 -0.894207
              }
            }
          }
        }
      }
    }
  }
  JOINT LeftUpLeg
  {
    OFFSET 7.06048 -1.2947 -1.0861
    CHANNELS 3 Zrotation Xrotation Yrotation
    JOINT LeftUpLegRoll
    {
      OFFSET 0 18.5309 0
      CHANNELS 3 Zrotation Xrotation Yrotation
      JOINT LeftLeg
      {
        OFFSET 0 22.9475 0
        CHANNELS 3 Zrotation Xrotation Yrotation
        JOINT LeftLegRoll
        {
          OFFSET 0 23.2355 0
          CHANNELS 3 Zrotation Xrotation Yrotation
          JOINT LeftFoot
          {
            OFFSET 0 18.9496 0
            CHANNELS 3 Zrotation Xrotation Yrotation
            JOINT LeftToeBase
            {
              OFFSET 0 16.0188 0
              CHANNELS 3 Zrotation Xrotation Yrotation
              End Site
              {
                OFFSET -0.0304289 7.75781 -0.894207
              }
            }
          }
        }
      }
    }
  }
}
MOTION
Frames: 12
Frame Time: 0.00208333
51.508 112.421 -5.65784 1.64208 4.99052 -1.25692 0.149985 0.700621 -0.308476 0.311642 5.40319 -0.639023 0.319955 7.04822 -0.645178 -15.9949 -19.6754 -5.22502 16.3364 24.1217 -6.97696 62.7673 -5.15604 -3.43814 106.615 11.6023 -5.24535 7.6633e-015 -1.59028e-015 -2.30777e-015 13.6713 42.679 -7.16177 -2.6702e-005 6.88335e-006 -3 8.02899 -4.95145 0.697709 -58.1731 -5.3526 3.27768 -112.883 13.8483 20.6396 -2.60408e-014 9.54166e-015 -0 -19.7196 49.266 11.6182 1.146e-005 -1.81543e-006 3 -8.02889 -4.95139 -0.697675 176.884 14.2585 1.26189 180 7.01577e-015 179.061 178.574 12.9646 179.471 -2.19464e-006 -7.3452e-006 0.0993183 -17.4884 66.4502 18.3341 8.13649 25.2326 -3.48773 -175.595 19.731 -1.67079 4.54188e-006 -4.6773e-006 -0.929416 -3.45205 -22.1583 -0.09265 1.97217e-006 -1.62636e-006 -0.329494 19.1246 68.5972 -20.0424 -8.13649 25.2327 3.48774 
51.5046 112.158 -5.66683 1.65307 5.03659 -1.28567 0.147387 0.694777 -0.30557 0.306497 5.39153 -0.632828 0.314724 7.03656 -0.638886 -15.9337 -19.5156 -5.16939 16.2665 24.0922 -6.93391 62.8178 -5.13612 -3.42966 106.536 11.6837 -5.21883 -6.85652e-016 1.59028e-015 -7.01958e-016 13.6683 42.575 -7.14107 -2.6702e-005 6.88335e-006 -3 8.02899 -4.95145 0.697709 -58.1523 -5.37941 3.29326 -112.89 13.8263 20.5775 1.27222e-014 -3.97569e-015 3.18055e-015 -19.6757 49.2836 11.6019 1.146e-005 -1.81543e-006 3 -8.02889 -4.95139 -0.697675 176.86 14.3587 1.27625 180 7.01577e-015 179.062 178.564 13.0465 179.47 -2.19464e-006 -7.3452e-006 0.101743 -17.4995 66.4675 18.3461 8.13649 25.2326 -3.48773 -175.586 19.8366 -1.69169 4.54188e-006 -4.6773e-006 -0.928907 -3.47229 -22.2317 -0.0972776 1.97217e-006 -1.62636e-006 -0.329748 19.1161 68.5863 -20.0327 -8.13649 25.2327 3.48774 
51.5097 111.908 -5.68544 1.66215 5.08065 -1.31537 0.145557 0.689799 -0.302684 0.302841 5.38159 -0.626782 0.310987 7.02663 -0.632768 -15.8816 -19.3671 -5.11713 16.2031 24.0678 -6.89368 62.8634 -5.11723 -3.42151 106.461 11.7647 -5.19303 3.21247e-014 0 -5.85794e-015 13.6654 42.4779 -7.12173 -2.6702e-005 6.88335e-006 -3 8.02899 -4.95145 0.697709 -58.1329 -5.40804 3.31009 -112.896 13.8067 20.5198 -2.88238e-014 8.74653e-015 3.18055e-015 -19.6344 49.3029 11.5872 1.146e-005 -1.81543e-006 3 -8.02889 -4.95139 -0.697675 176.839 14.4584 1.28897 180 7.01577e-015 179.063 178.556 13.1351 179.469 -2.19464e-006 -7.3452e-006 0.104216 -17.5106 66.4846 18.3581 8.13649 25.2326 -3.48773 -175.573 19.9406 -1.71546 4.54188e-006 -4.6773e-006 -0.928393 -3.49235 -22.309 -0.101887 1.97217e-006 -1.62636e-006 -0.330147 19.108 68.5757 -20.0233 -8.13649 25.2327 3.48774 
51.5022 111.637 -5.69956 1.66907 5.1225 -1.34612 0.144625 0.685794 -0.29981 0.300922 5.3736 -0.620883 0.308993 7.01863 -0.626828 -15.8404 -19.231 -5.06878 16.1474 24.0491 -6.85681 62.9028 -5.09949 -3.41369 106.392 11.8453 -5.16712 -5.47823e-015 1.59028e-015 -2.04997e-016 13.662 42.3877 -7.10355 -2.6702e-005 6.88335e-006 -3 8.02899 -4.95145 0.697709 -58.1156 -5.43865 3.32834 -112.899 13.7903 20.4671 3.97569e-015 -7.95139e-016 3.18055e-015 -19.596 49.3236 11.5743 1.146e-005 -1.81543e-006 3 -8.02889 -4.95139 -0.697675 176.822 14.5575 1.2998 180 7.01577e-015 179.063 178.549 13.231 179.468 -2.19464e-006 -7.3452e-006 0.106731 -17.5215 66.5015 18.37 8.13649 25.2326 -3.48773 -175.556 20.0429 -1.74238 4.54188e-006 -4.6773e-006 -0.92787 -3.51225 -22.3905 -0.106483 1.97217e-006 -1.62636e-006 -0.330709 19.1005 68.5654 -20.0143 -8.13649 25.2327 3.48774 
51.5242 111.385 -5.68935 1.67473 5.16084 -1.37787 0.144358 0.683109 -0.296977 0.300276 5.36824 -0.615164 0.308276 7.01327 -0.621089 -15.8091 -19.1085 -5.02417 16.0996 24.038 -6.82343 62.9377 -5.08329 -3.4065 106.328 11.9259 -5.14281 -1.22998e-015 0 -5.46658e-016 13.6588 42.3055 -7.08705 -2.6702e-005 6.88335e-006 -3 8.02899 -4.95145 0.697709 -58.0988 -5.47203 3.34839 -112.901 13.7772 20.4195 -4.37326e-015 7.95139e-015 3.18055e-015 -19.5598 49.3456 11.5627 1.146e-005 -1.81543e-006 3 -8.02889 -4.95139 -0.697675 176.807 14.6538 1.30886 180 7.01577e-015 179.064 178.544 13.3318 179.466 -2.19464e-006 -7.3452e-006 0.109275 -17.5331 66.5192 18.3824 8.13649 25.2326 -3.48773 -175.536 20.1404 -1.77178 4.54188e-006 -4.6773e-006 -0.927356 -3.53226 -22.4727 -0.111093 1.97217e-006 -1.62636e-006 -0.331367 19.0929 68.5548 -20.0052 -8.13649 25.2327 3.48774 
51.5264 111.117 -5.69677 1.68002 5.1949 -1.41051 0.144442 0.681879 -0.294222 0.300272 5.36578 -0.60965 0.308205 7.01082 -0.615567 -15.7851 -18.9989 -4.98253 16.0583 24.0356 -6.793 62.9708 -5.06873 -3.40016 106.263 12.0066 -5.12236 -1.01908e-014 0 1.24862e-015 13.6569 42.2318 -7.07281 -2.6702e-005 6.88335e-006 -3 8.02899 -4.95145 0.697709 -58.0806 -5.50855 3.37037 -112.904 13.7669 20.376 -5.36719e-015 -1.59028e-015 -0 -19.5246 49.3691 11.5521 1.146e-005 -1.81543e-006 3 -8.02889 -4.95139 -0.697675 176.794 14.7456 1.31653 180 7.01577e-015 179.064 178.541 13.4355 179.463 -2.19464e-006 -7.3452e-006 0.111849 -17.5458 66.5385 18.3959 8.13649 25.2326 -3.48773 -175.515 20.2311 -1.80286 4.54188e-006 -4.6773e-006 -0.926876 -3.55256 -22.5532 -0.115732 1.97217e-006 -1.62636e-006 -0.332055 19.0847 68.5433 -19.9955 -8.13649 25.2327 3.48774 
51.5402 110.845 -5.70973 1.68476 5.22536 -1.44399 0.144873 0.681886 -0.291537 0.300914 5.3658 -0.604327 0.308784 7.01084 -0.610247 -15.7674 -18.9008 -4.94349 16.0223 24.0405 -6.76506 63.0024 -5.05558 -3.39455 106.199 12.0872 -5.10568 6.89534e-015 -3.18055e-015 -1.57164e-015 13.6565 42.1662 -7.06075 -2.6702e-005 6.88335e-006 -3 8.02899 -4.95145 0.697709 -58.0612 -5.54778 3.39399 -112.908 13.7587 20.3363 5.36719e-015 0 3.18055e-015 -19.4904 49.3944 11.5424 1.146e-005 -1.81543e-006 3 -8.02889 -4.95139 -0.697675 176.781 14.834 1.32291 180 7.01577e-015 179.065 178.541 13.5428 179.461 -2.19464e-006 -7.3452e-006 0.114464 -17.5595 66.5588 18.4102 8.13649 25.2326 -3.48773 -175.492 20.3163 -1.83568 4.54188e-006 -4.6773e-006 -0.926424 -3.57302 -22.6332 -0.120387 1.97217e-006 -1.62636e-006 -0.332787 19.0762 68.5311 -19.9854 -8.13649 25.2327 3.48774 
51.5609 110.572 -5.70899 1.68876 5.25288 -1.47825 0.145649 0.682913 -0.288917 0.302204 5.36786 -0.599183 0.310015 7.0129 -0.605118 -15.7549 -18.8128 -4.90666 15.9908 24.0514 -6.73915 63.0326 -5.04361 -3.38953 106.135 12.1675 -5.09271 -1.03741e-015 0 -4.34841e-016 13.6577 42.1081 -7.05078 -2.6702e-005 6.88335e-006 -3 8.02899 -4.95145 0.697709 -58.0409 -5.58926 3.419 -112.913 13.7521 20.2998 -1.49089e-014 3.97569e-015 -3.18055e-015 -19.4572 49.4215 11.5337 1.146e-005 -1.81543e-006 3 -8.02889 -4.95139 -0.697675 176.77 14.92 1.32814 180 7.01578e-015 179.065 178.542 13.6543 179.457 -2.19464e-006 -7.3452e-006 0.117129 -17.5738 66.58 18.4251 8.13649 25.2326 -3.48773 -175.468 20.3974 -1.8703 4.54188e-006 -4.6773e-006 -0.926 -3.59353 -22.7138 -0.125044 1.97217e-006 -1.62636e-006 -0.333575 19.0675 68.5184 -19.975 -8.13649 25.2327 3.48774 
51.5771 110.287 -5.71719 1.69184 5.27814 -1.51323 0.146769 0.684746 -0.286356 0.304147 5.37153 -0.594204 0.311902 7.01657 -0.600166 -15.7468 -18.7335 -4.87168 15.9627 24.0671 -6.71482 63.0616 -5.03256 -3.385 106.071 12.2471 -5.08336 7.17954e-015 -4.77083e-015 -1.80149e-015 13.6604 42.057 -7.04281 -2.6702e-005 6.88335e-006 -3 8.02899 -4.95145 0.697709 -58.0197 -5.63256 3.44513 -112.917 13.7463 20.2661 8.54774e-015 -2.38542e-015 6.36111e-015 -19.425 49.4507 11.5261 1.146e-005 -1.81543e-006 3 -8.02889 -4.95139 -0.697675 176.761 15.0045 1.33232 180 7.01578e-015 179.065 178.544 13.7707 179.454 -2.19464e-006 -7.3452e-006 0.119855 -17.5884 66.6017 18.4403 8.13649 25.2326 -3.48773 -175.441 20.4757 -1.9068 4.54188e-006 -4.6773e-006 -0.925598 -3.61396 -22.7962 -0.12969 1.97217e-006 -1.62636e-006 -0.334434 19.0588 68.5056 -19.9645 -8.13649 25.2327 3.48774 
51.5358 109.993 -5.73262 1.6938 5.30178 -1.5489 0.148231 0.687166 -0.283847 0.306744 5.37637 -0.589379 0.314446 7.02141 -0.595379 -15.742 -18.6614 -4.83819 15.937 24.0864 -6.69162 63.0896 -5.02221 -3.38081 106.008 12.326 -5.07757 2.14284e-014 0 -3.64024e-015 13.6649 42.0122 -7.03678 -2.6702e-005 6.88335e-006 -3 8.02899 -4.95145 0.697709 -57.9979 -5.67724 3.47211 -112.921 13.7409 20.2348 1.59028e-015 7.95139e-016 3.18055e-015 -19.3939 49.4822 11.5196 1.146e-005 -1.81543e-006 3 -8.02889 -4.95139 -0.697675 176.754 15.0885 1.33559 180 7.01578e-015 179.066 178.548 13.8926 179.45 -2.19464e-006 -7.3452e-006 0.122652 -17.6032 66.6236 18.4557 8.13649 25.2326 -3.48773 -175.412 20.5527 -1.94524 4.54188e-006 -4.6773e-006 -0.925216 -3.63419 -22.8817 -0.134311 1.97217e-006 -1.62636e-006 -0.335377 19.0502 68.4928 -19.9541 -8.13649 25.2327 3.48774 
51.5602 109.703 -5.73641 1.69446 5.32448 -1.58519 0.150032 0.689957 -0.281385 0.31 5.38195 -0.584695 0.317653 7.02699 -0.590743 -15.7395 -18.5953 -4.80581 15.9128 24.108 -6.66909 63.1169 -5.01231 -3.37684 105.943 12.4038 -5.07524 -2.33261e-015 -1.59028e-015 -2.42269e-016 13.6711 41.9733 -7.03259 -2.6702e-005 6.88335e-006 -3 8.02899 -4.95145 0.697709 -57.9758 -5.72285 3.49967 -112.925 13.7352 20.2053 -2.64384e-014 9.54166e-015 6.36111e-015 -19.3638 49.5163 11.5144 1.146e-005 -1.81543e-006 3 -8.02889 -4.95139 -0.697675 176.749 15.1731 1.33806 180 7.01578e-015 179.066 178.551 14.0208 179.446 -2.19464e-006 -7.3452e-006 0.125529 -17.6178 66.6452 18.4709 8.13649 25.2326 -3.48773 -175.38 20.6296 -1.98568 4.54188e-006 -4.6773e-006 -0.924852 -3.65408 -22.9713 -0.138894 1.97217e-006 -1.62636e-006 -0.33642 19.0421 68.4803 -19.9441 -8.13649 25.2327 3.48774 
51.5274 109.404 -5.75632 1.69364 5.3469 -1.62206 0.152172 0.692903 -0.278963 0.313918 5.38783 -0.580138 0.321524 7.03288 -0.586247 -15.7383 -18.5338 -4.77418 15.889 24.1306 -6.64679 63.1436 -5.00261 -3.37297 105.879 12.4804 -5.07632 -7.26884e-015 0 2.67117e-016 13.6793 41.9397 -7.03017 -2.6702e-005 6.88335e-006 -3 8.02899 -4.95145 0.697709 -57.9534 -5.76895 3.52755 -112.927 13.7285 20.1772 -3.51849e-014 1.35174e-014 6.36111e-015 -19.3347 49.553 11.5104 1.146e-005 -1.81543e-006 3 -8.02889 -4.95139 -0.697675 176.746 15.259 1.33986 180 7.01578e-015 179.066 178.555 14.1558 179.442 -2.19464e-006 -7.3452e-006 0.128498 -17.632 66.6662 18.4858 8.13649 25.2326 -3.48773 -175.346 20.7079 -2.02821 4.54188e-006 -4.6773e-006 -0.9245 -3.67353 -23.0663 -0.143426 1.97217e-006 -1.62636e-006 -0.337574 19.0344 68.4683 -19.9345 -8.13649 25.2327 3.48774 
